<svg width="220" height="36" viewBox="0 0 220 36" fill="none" xmlns="http://www.w3.org/2000/svg">
<g clip-path="url(#clip0_1423_9765)">
<path d="M138.967 0.0374374H0.198242V35.8761H138.967V0.0374374Z" fill="#D40000"/>
<path d="M5.72949 30.4275V27.3277L19.5454 8.87102H5.72949V5.48611H24.2471V8.58596L10.4313 27.0426H24.2471V30.4275H5.72949Z" fill="white"/>
<path d="M26.6709 30.4275L36.2915 5.48611H40.2698L49.8904 30.4275H45.6225L43.3803 24.5841H32.9277L30.6855 30.4275H26.6709ZM34.2299 21.1636H42.0782L38.172 10.4031L34.2299 21.1636Z" fill="white"/>
<path d="M53.3232 30.4275V5.48611H63.0162C65.9336 5.48611 68.0674 6.10371 69.4179 7.3389C70.7921 8.55034 71.4793 10.1537 71.4793 12.149C71.4793 13.4317 71.1296 14.5363 70.4304 15.4627C69.7313 16.3653 68.8149 17.0185 67.6816 17.4223C69.1766 17.7549 70.358 18.4319 71.226 19.4533C72.1183 20.4509 72.5642 21.7574 72.5642 23.3727C72.5642 24.7505 72.2629 25.9738 71.6601 27.0426C71.0574 28.0877 70.093 28.9192 68.7668 29.5366C67.4647 30.1306 65.7648 30.4275 63.6671 30.4275H53.3232ZM57.3017 27.0426H63.3777C65.379 27.0426 66.7415 26.71 67.4647 26.0449C68.2122 25.3798 68.586 24.4178 68.586 23.1589C68.586 21.8999 68.2122 20.926 67.4647 20.2372C66.7172 19.5245 65.3429 19.1682 63.3416 19.1682H57.3017V27.0426ZM57.3017 16.0328H62.6906C64.523 16.0328 65.7768 15.7002 66.4519 15.0351C67.1513 14.37 67.5008 13.4911 67.5008 12.3984C67.5008 11.282 67.1513 10.415 66.4519 9.7974C65.7768 9.17982 64.523 8.87102 62.6906 8.87102H57.3017V16.0328Z" fill="white"/>
<path d="M77.4316 30.4275V5.48611H87.1246C90.042 5.48611 92.1758 6.10371 93.5263 7.3389C94.9005 8.55034 95.5877 10.1537 95.5877 12.149C95.5877 13.4317 95.238 14.5363 94.5388 15.4627C93.8396 16.3653 92.9233 17.0185 91.79 17.4223C93.285 17.7549 94.4664 18.4319 95.3347 19.4533C96.2267 20.4509 96.6728 21.7574 96.6728 23.3727C96.6728 24.7505 96.3713 25.9738 95.7685 27.0426C95.1658 28.0877 94.2014 28.9192 92.8752 29.5366C91.5731 30.1306 89.8732 30.4275 87.7755 30.4275H77.4316ZM81.4101 27.0426H87.4861C89.4874 27.0426 90.8499 26.71 91.5731 26.0449C92.3206 25.3798 92.6943 24.4178 92.6943 23.1589C92.6943 21.8999 92.3206 20.926 91.5731 20.2372C90.8256 19.5245 89.4513 19.1682 87.45 19.1682H81.4101V27.0426ZM81.4101 16.0328H86.799C88.6314 16.0328 89.8852 15.7002 90.5605 15.0351C91.2597 14.37 91.6094 13.4911 91.6094 12.3984C91.6094 11.282 91.2597 10.415 90.5605 9.7974C89.8852 9.17982 88.6314 8.87102 86.799 8.87102H81.4101V16.0328Z" fill="white"/>
<path d="M102.355 30.4275V5.48611H106.334V30.4275H102.355Z" fill="white"/>
<path d="M111.085 30.4275L119.874 17.5292L111.447 5.48611H115.895L122.297 14.5719L128.771 5.48611H133.075L124.684 17.458L133.436 30.4275H128.916L122.225 20.3441L115.461 30.4275H111.085Z" fill="white"/>
</g>
<path d="M158.664 23.1526C163.19 19.4804 165.36 17.3562 165.36 13.3959C165.36 8.82351 161.902 5.7993 156.861 5.7993C152.262 5.7993 149.833 7.70751 147.368 11.0917L150.569 13.5398C152.556 11.0196 154.175 9.75959 156.53 9.75959C158.885 9.75959 160.687 11.1997 160.687 13.6839C160.687 15.9521 159.4 17.5722 155.867 20.4884L147 27.869V31.3612H165.618V27.4729H153.365L158.664 23.1526Z" fill="#D40000"/>
<path d="M193.813 11.0794L193.478 10.7463L189.838 14.2519C188.397 9.24476 184.53 5.72727 179.269 5.72727C172.499 5.72727 168.01 11.5597 168.01 18.7603C168.01 23.7337 170.076 27.9982 173.547 30.1985L170.154 33.5183L170.492 33.8485L176.568 27.9028L176.564 27.8984L177.111 27.3626C174.358 26.1888 172.683 22.7676 172.683 18.7603C172.683 13.6839 175.221 9.72362 179.195 9.72362C183.169 9.72362 185.781 13.7919 185.781 18.7603C185.781 18.8002 185.781 18.8399 185.78 18.8798L189.978 14.7729C189.978 14.7729 189.977 14.7726 189.977 14.7724L193.813 11.0794Z" fill="#D40000"/>
<path d="M183.979 28.5084L180.771 23.9001H182.444L184.706 27.2696L186.991 23.9001H188.617L185.409 28.4761V31.508H183.979V28.5086L183.979 28.5084Z" fill="#D40000"/>
<path d="M189.489 23.9001H195.533V25.0957H190.922V27.0733H195.009V28.269H190.922V30.3123H195.591V31.508H189.489V23.9001Z" fill="#D40000"/>
<path d="M200.141 23.9001H201.502L205.18 31.508H203.628L202.78 29.684H198.827L197.968 31.508H196.463L200.141 23.9001ZM202.243 28.5083L200.798 25.4863L199.365 28.5083H202.243Z" fill="#D40000"/>
<path d="M206.052 23.9001H209.715C210.748 23.9001 211.558 24.183 212.086 24.6614C212.521 25.074 212.768 25.639 212.768 26.3022V26.3238C212.768 27.5735 211.958 28.3239 210.807 28.6276L213.026 31.508H211.323L209.304 28.8563H207.496V31.508H206.052V23.9001ZM209.609 27.6716C210.642 27.6716 211.3 27.1715 211.3 26.4003V26.3779C211.3 25.5632 210.666 25.1173 209.598 25.1173H207.496V27.6716H209.609Z" fill="#D40000"/>
<path d="M213.898 30.3245L214.731 29.3943C215.485 30.0075 216.239 30.3561 217.219 30.3561C218.075 30.3561 218.615 29.9864 218.615 29.426V29.405C218.615 28.8768 218.3 28.5913 216.836 28.2748C215.159 27.8939 214.213 27.4288 214.213 26.0656V26.0447C214.213 24.777 215.339 23.9001 216.904 23.9001C218.052 23.9001 218.964 24.2277 219.763 24.8296L219.02 25.8124C218.311 25.3157 217.602 25.0512 216.881 25.0512C216.071 25.0512 215.598 25.4426 215.598 25.9289V25.9498C215.598 26.5201 215.958 26.7742 217.467 27.1123C219.133 27.4925 220 28.0523 220 29.2779V29.2997C220 30.6838 218.84 31.508 217.185 31.508C215.98 31.508 214.843 31.1166 213.897 30.3245H213.898Z" fill="#D40000"/>
<defs>
<clipPath id="clip0_1423_9765">
<rect width="139" height="36" fill="white"/>
</clipPath>
</defs>
</svg>
